<svg width="360" height="180" viewBox="0 0 360 180" fill="none" xmlns="http://www.w3.org/2000/svg">
<rect x="2" y="2" width="356" height="176" rx="21" fill="url(#paint0_linear_12_2)" stroke="#F3F9F8" stroke-width="4"/>
<rect x="88.5906" y="24.9711" width="169.088" height="50.9827" fill="black"/>
<rect x="96.5476" y="32.2543" width="68.6298" height="36.4162" fill="white"/>
<path d="M187.171 46.6016C187.006 46.0647 186.777 45.5841 186.485 45.1599C186.2 44.729 185.856 44.3611 185.451 44.0562C185.053 43.7513 184.596 43.5226 184.079 43.3701C183.562 43.211 182.998 43.1315 182.389 43.1315C181.295 43.1315 180.32 43.4066 179.465 43.9568C178.61 44.5069 177.937 45.3157 177.447 46.3829C176.963 47.4435 176.721 48.7361 176.721 50.2607C176.721 51.7986 176.963 53.1012 177.447 54.1684C177.931 55.2356 178.604 56.0477 179.465 56.6045C180.327 57.1547 181.328 57.4298 182.468 57.4298C183.502 57.4298 184.397 57.2309 185.153 56.8332C185.915 56.4354 186.502 55.872 186.913 55.1428C187.324 54.407 187.529 53.5453 187.529 52.5576L188.365 52.6869H182.836V49.8033H191.099V52.2494C191.099 53.9927 190.728 55.5008 189.985 56.7735C189.243 58.0462 188.222 59.0273 186.923 59.7167C185.623 60.3995 184.132 60.7408 182.448 60.7408C180.572 60.7408 178.925 60.3199 177.507 59.4781C176.095 58.6296 174.991 57.4264 174.195 55.8687C173.407 54.3043 173.012 52.4482 173.012 50.3005C173.012 48.6566 173.244 47.1883 173.708 45.8957C174.179 44.6031 174.835 43.506 175.677 42.6045C176.519 41.6963 177.507 41.0069 178.64 40.5363C179.774 40.059 181.007 39.8204 182.339 39.8204C183.466 39.8204 184.516 39.9861 185.491 40.3175C186.465 40.6424 187.33 41.1064 188.086 41.7096C188.848 42.3128 189.475 43.0287 189.965 43.8573C190.456 44.6859 190.777 45.6007 190.93 46.6016H187.171ZM202.841 54.0391V45.1897H206.441V60.4624H202.951V57.7479H202.792C202.447 58.6031 201.88 59.3024 201.091 59.846C200.309 60.3895 199.345 60.6613 198.198 60.6613C197.197 60.6613 196.312 60.4392 195.543 59.9951C194.781 59.5443 194.184 58.8914 193.753 58.0363C193.322 57.1746 193.107 56.1338 193.107 54.9141V45.1897H196.706V54.3573C196.706 55.3251 196.971 56.0941 197.502 56.6641C198.032 57.2342 198.728 57.5193 199.59 57.5193C200.12 57.5193 200.634 57.39 201.131 57.1315C201.628 56.8729 202.036 56.4885 202.354 55.9781C202.679 55.461 202.841 54.8147 202.841 54.0391ZM208.742 60.4624V45.1897H212.341V60.4624H208.742ZM210.552 43.0221C209.982 43.0221 209.491 42.8332 209.08 42.4553C208.669 42.0709 208.464 41.6102 208.464 41.0732C208.464 40.5297 208.669 40.069 209.08 39.6911C209.491 39.3067 209.982 39.1144 210.552 39.1144C211.128 39.1144 211.619 39.3067 212.023 39.6911C212.434 40.069 212.64 40.5297 212.64 41.0732C212.64 41.6102 212.434 42.0709 212.023 42.4553C211.619 42.8332 211.128 43.0221 210.552 43.0221ZM222.269 45.1897V47.9738H213.489V45.1897H222.269ZM215.657 41.5306H219.256V55.8687C219.256 56.3526 219.329 56.7238 219.475 56.9823C219.628 57.2342 219.827 57.4066 220.072 57.4994C220.317 57.5922 220.589 57.6386 220.887 57.6386C221.113 57.6386 221.318 57.622 221.504 57.5889C221.696 57.5557 221.842 57.5259 221.941 57.4994L222.548 60.3133C222.355 60.3796 222.08 60.4525 221.722 60.532C221.371 60.6116 220.94 60.658 220.43 60.6712C219.528 60.6978 218.716 60.5619 217.994 60.2636C217.271 59.9586 216.698 59.488 216.274 58.8516C215.856 58.2153 215.65 57.4198 215.657 56.4653V41.5306ZM228.274 60.7707C227.307 60.7707 226.435 60.5983 225.659 60.2536C224.89 59.9023 224.281 59.3853 223.83 58.7025C223.386 58.0197 223.164 57.1779 223.164 56.1769C223.164 55.3152 223.323 54.6026 223.641 54.0391C223.959 53.4757 224.393 53.0249 224.943 52.6869C225.494 52.3488 226.113 52.0936 226.803 51.9212C227.499 51.7423 228.218 51.613 228.961 51.5335C229.855 51.4407 230.581 51.3578 231.138 51.2849C231.695 51.2053 232.099 51.086 232.351 50.9269C232.61 50.7612 232.739 50.506 232.739 50.1613V50.1016C232.739 49.3526 232.517 48.7726 232.073 48.3616C231.629 47.9506 230.989 47.7451 230.154 47.7451C229.272 47.7451 228.573 47.9373 228.056 48.3218C227.545 48.7063 227.201 49.1603 227.022 49.684L223.661 49.2068C223.926 48.2787 224.363 47.5032 224.973 46.88C225.583 46.2503 226.329 45.7797 227.211 45.4681C228.092 45.1499 229.067 44.9908 230.134 44.9908C230.87 44.9908 231.602 45.077 232.331 45.2494C233.06 45.4217 233.727 45.7068 234.33 46.1045C234.933 46.4956 235.417 47.0292 235.782 47.7053C236.153 48.3815 236.338 49.2266 236.338 50.2408V60.4624H232.878V58.3644H232.759C232.54 58.7887 232.232 59.1864 231.834 59.5576C231.443 59.9222 230.949 60.2172 230.353 60.4425C229.763 60.6613 229.07 60.7707 228.274 60.7707ZM229.209 58.1258C229.932 58.1258 230.558 57.9833 231.088 57.6982C231.619 57.4066 232.026 57.0221 232.311 56.5448C232.603 56.0675 232.749 55.5472 232.749 54.9837V53.184C232.636 53.2768 232.444 53.363 232.172 53.4425C231.907 53.5221 231.609 53.5917 231.277 53.6514C230.946 53.711 230.618 53.764 230.293 53.8104C229.968 53.8568 229.686 53.8966 229.448 53.9298C228.911 54.0027 228.43 54.122 228.006 54.2877C227.582 54.4534 227.247 54.6854 227.002 54.9837C226.756 55.2754 226.634 55.6532 226.634 56.1173C226.634 56.7801 226.876 57.2806 227.36 57.6187C227.844 57.9568 228.46 58.1258 229.209 58.1258ZM238.558 60.4624V45.1897H242.048V47.7352H242.207C242.485 46.8535 242.963 46.1741 243.639 45.6968C244.321 45.2129 245.1 44.971 245.975 44.971C246.174 44.971 246.396 44.9809 246.641 45.0008C246.893 45.014 247.102 45.0372 247.268 45.0704V48.3815C247.115 48.3284 246.873 48.282 246.542 48.2423C246.217 48.1959 245.902 48.1727 245.597 48.1727C244.941 48.1727 244.351 48.3152 243.828 48.6002C243.311 48.8786 242.903 49.2664 242.605 49.7636C242.306 50.2607 242.157 50.8341 242.157 51.4837V60.4624H238.558Z" fill="white"/>
<path d="M104.914 57.9827V43.4372H110.369C111.486 43.4372 112.424 43.6455 113.181 44.0622C113.944 44.4789 114.519 45.0518 114.907 45.781C115.3 46.5054 115.497 47.3293 115.497 48.2526C115.497 49.1853 115.3 50.0139 114.907 50.7383C114.514 51.4628 113.934 52.0333 113.167 52.45C112.4 52.8619 111.456 53.0679 110.333 53.0679H106.718V50.9017H109.978C110.632 50.9017 111.167 50.7881 111.583 50.5608C112 50.3335 112.308 50.021 112.507 49.6233C112.71 49.2256 112.812 48.7687 112.812 48.2526C112.812 47.7365 112.71 47.2819 112.507 46.8889C112.308 46.4959 111.998 46.1905 111.576 45.9727C111.16 45.7502 110.622 45.6389 109.964 45.6389H107.549V57.9827H104.914ZM139.133 58.2028C138.442 58.2028 137.819 58.0797 137.265 57.8335C136.716 57.5826 136.28 57.2133 135.958 56.7256C135.641 56.2379 135.482 55.6365 135.482 54.9216C135.482 54.3061 135.596 53.7971 135.823 53.3946C136.051 52.9921 136.361 52.6702 136.754 52.4287C137.147 52.1872 137.589 52.0049 138.082 51.8818C138.579 51.754 139.093 51.6616 139.623 51.6048C140.262 51.5385 140.781 51.4794 141.178 51.4273C141.576 51.3704 141.865 51.2852 142.045 51.1716C142.23 51.0532 142.322 50.8709 142.322 50.6247V50.5821C142.322 50.0471 142.163 49.6328 141.846 49.3392C141.529 49.0456 141.072 48.8989 140.475 48.8989C139.846 48.8989 139.346 49.0362 138.977 49.3108C138.612 49.5854 138.366 49.9097 138.238 50.2838L135.837 49.9429C136.027 49.28 136.339 48.726 136.775 48.281C137.211 47.8312 137.743 47.495 138.373 47.2724C139.003 47.0452 139.699 46.9315 140.461 46.9315C140.987 46.9315 141.51 46.9931 142.031 47.1162C142.551 47.2393 143.027 47.4429 143.458 47.727C143.889 48.0063 144.235 48.3875 144.495 48.8704C144.76 49.3534 144.893 49.9571 144.893 50.6815V57.9827H142.421V56.4841H142.336C142.18 56.7871 141.96 57.0712 141.676 57.3364C141.396 57.5968 141.043 57.8075 140.617 57.9685C140.196 58.1247 139.701 58.2028 139.133 58.2028ZM139.801 56.3136C140.317 56.3136 140.764 56.2118 141.143 56.0082C141.522 55.7999 141.813 55.5253 142.016 55.1844C142.225 54.8435 142.329 54.4718 142.329 54.0693V52.7838C142.248 52.8501 142.111 52.9116 141.917 52.9685C141.728 53.0253 141.515 53.075 141.278 53.1176C141.041 53.1602 140.807 53.1981 140.575 53.2312C140.343 53.2644 140.141 53.2928 139.971 53.3165C139.587 53.3686 139.244 53.4538 138.941 53.5722C138.638 53.6905 138.399 53.8562 138.224 54.0693C138.049 54.2776 137.961 54.5475 137.961 54.879C137.961 55.3525 138.134 55.7099 138.48 55.9514C138.825 56.1929 139.266 56.3136 139.801 56.3136ZM151.485 62.0736C151.135 62.0736 150.811 62.0452 150.512 61.9883C150.219 61.9363 149.985 61.8747 149.809 61.8037L150.406 59.8008C150.78 59.9097 151.114 59.9618 151.407 59.9571C151.701 59.9524 151.959 59.86 152.182 59.6801C152.409 59.5049 152.601 59.2114 152.757 58.7994L152.977 58.2099L149.021 47.0736H151.748L154.262 55.3122H154.376L156.897 47.0736H159.632L155.264 59.3037C155.06 59.8813 154.79 60.3761 154.454 60.7881C154.118 61.2047 153.706 61.522 153.218 61.7398C152.735 61.9623 152.158 62.0736 151.485 62.0736Z" fill="black"/>
<path d="M119.113 43.839L131.076 51.9882L119.115 60.1406L119.113 43.839Z" fill="white" stroke="black"/>
<g style="mix-blend-mode:color-dodge" opacity="0.9">
<path d="M84.6051 128H78.9801L89.2216 98.9091H95.7273L105.983 128H100.358L92.5881 104.875H92.3608L84.6051 128ZM84.7898 116.594H100.131V120.827H84.7898V116.594ZM110.787 136.182V106.182H115.844V109.79H116.142C116.408 109.259 116.782 108.696 117.265 108.099C117.748 107.493 118.401 106.977 119.225 106.551C120.049 106.116 121.1 105.898 122.378 105.898C124.064 105.898 125.584 106.329 126.938 107.19C128.302 108.043 129.381 109.307 130.177 110.983C130.981 112.65 131.384 114.695 131.384 117.119C131.384 119.515 130.991 121.551 130.205 123.227C129.419 124.903 128.349 126.182 126.995 127.062C125.641 127.943 124.106 128.384 122.392 128.384C121.142 128.384 120.106 128.175 119.282 127.759C118.458 127.342 117.795 126.84 117.293 126.253C116.801 125.656 116.417 125.093 116.142 124.562H115.929V136.182H110.787ZM115.83 117.091C115.83 118.502 116.029 119.738 116.427 120.798C116.834 121.859 117.416 122.687 118.174 123.284C118.941 123.871 119.869 124.165 120.958 124.165C122.094 124.165 123.046 123.862 123.813 123.256C124.58 122.64 125.158 121.802 125.546 120.741C125.944 119.671 126.142 118.455 126.142 117.091C126.142 115.737 125.948 114.534 125.56 113.483C125.172 112.432 124.594 111.608 123.827 111.011C123.06 110.415 122.104 110.116 120.958 110.116C119.859 110.116 118.927 110.405 118.16 110.983C117.392 111.561 116.81 112.37 116.412 113.412C116.024 114.454 115.83 115.68 115.83 117.091ZM151.419 106.182V110.401H142.016V128H136.987V106.182H151.419ZM165.503 128.426C163.315 128.426 161.426 127.972 159.835 127.062C158.254 126.144 157.037 124.847 156.185 123.17C155.332 121.485 154.906 119.501 154.906 117.219C154.906 114.974 155.332 113.005 156.185 111.31C157.046 109.605 158.249 108.279 159.792 107.332C161.336 106.376 163.149 105.898 165.233 105.898C166.578 105.898 167.846 106.116 169.04 106.551C170.242 106.977 171.303 107.64 172.221 108.54C173.149 109.439 173.879 110.585 174.409 111.977C174.939 113.36 175.204 115.008 175.204 116.92V118.497H157.321V115.031H170.275C170.266 114.046 170.053 113.17 169.636 112.403C169.22 111.627 168.637 111.016 167.889 110.571C167.15 110.126 166.289 109.903 165.304 109.903C164.253 109.903 163.329 110.159 162.534 110.67C161.738 111.172 161.118 111.835 160.673 112.659C160.238 113.473 160.015 114.368 160.006 115.344V118.369C160.006 119.638 160.238 120.727 160.702 121.636C161.166 122.536 161.814 123.227 162.648 123.71C163.481 124.184 164.456 124.42 165.574 124.42C166.322 124.42 166.999 124.316 167.605 124.108C168.211 123.89 168.737 123.573 169.182 123.156C169.627 122.74 169.963 122.223 170.19 121.608L174.991 122.148C174.688 123.417 174.111 124.525 173.258 125.472C172.416 126.409 171.336 127.138 170.02 127.659C168.703 128.17 167.198 128.426 165.503 128.426ZM195.74 114.96V119.179H184.121V114.96H195.74ZM185.712 106.182V128H180.755V106.182H185.712ZM199.107 106.182V128H194.164V106.182H199.107ZM203.066 110.401V106.182H222.157V110.401H215.097V128H210.126V110.401H203.066ZM230.647 136.182C229.947 136.182 229.298 136.125 228.701 136.011C228.114 135.907 227.646 135.784 227.295 135.642L228.488 131.636C229.236 131.854 229.904 131.958 230.491 131.949C231.078 131.939 231.594 131.755 232.039 131.395C232.494 131.045 232.878 130.457 233.19 129.634L233.63 128.455L225.718 106.182H231.173L236.201 122.659H236.429L241.471 106.182H246.94L238.204 130.642C237.797 131.797 237.257 132.787 236.585 133.611C235.913 134.444 235.089 135.079 234.113 135.514C233.147 135.959 231.992 136.182 230.647 136.182ZM264.255 122.02L270.732 106.182H274.88L266.059 128H262.465L253.843 106.182H257.948L264.255 122.02ZM256.656 106.182V128H251.698V106.182H256.656ZM272.068 128V106.182H276.982V128H272.068Z" fill="#FCF9F9"/>
</g>
<defs>
<linearGradient id="paint0_linear_12_2" x1="9.31034" y1="10.4046" x2="355.591" y2="178.427" gradientUnits="userSpaceOnUse">
<stop offset="0.0867052" stop-color="#77756D"/>
<stop offset="0.930295" stop-color="#99988C"/>
</linearGradient>
</defs>
</svg>
