<svg width="360" height="180" viewBox="0 0 360 180" fill="none" xmlns="http://www.w3.org/2000/svg">
<rect x="2" y="2" width="356" height="176" rx="21" fill="url(#paint0_linear_11_55)" stroke="#F3F9F8" stroke-width="4"/>
<rect x="88.5906" y="24.9711" width="169.088" height="50.9827" fill="black"/>
<rect x="96.5476" y="32.2543" width="68.6298" height="36.4162" fill="white"/>
<path d="M187.171 46.6016C187.005 46.0647 186.777 45.5841 186.485 45.1598C186.2 44.729 185.855 44.3611 185.451 44.0562C185.053 43.7512 184.596 43.5225 184.079 43.3701C183.562 43.211 182.998 43.1314 182.389 43.1314C181.295 43.1314 180.32 43.4065 179.465 43.9567C178.61 44.5069 177.937 45.3156 177.447 46.3829C176.963 47.4435 176.721 48.7361 176.721 50.2607C176.721 51.7986 176.963 53.1011 177.447 54.1684C177.931 55.2356 178.603 56.0476 179.465 56.6044C180.327 57.1546 181.328 57.4297 182.468 57.4297C183.502 57.4297 184.397 57.2309 185.153 56.8331C185.915 56.4354 186.502 55.872 186.913 55.1428C187.324 54.407 187.529 53.5453 187.529 52.5576L188.364 52.6868H182.836V49.8033H191.099V52.2493C191.099 53.9927 190.728 55.5008 189.985 56.7735C189.243 58.0462 188.222 59.0273 186.923 59.7167C185.623 60.3994 184.132 60.7408 182.448 60.7408C180.572 60.7408 178.925 60.3199 177.506 59.478C176.094 58.6295 174.991 57.4264 174.195 55.8687C173.407 54.3043 173.012 52.4482 173.012 50.3005C173.012 48.6565 173.244 47.1883 173.708 45.8956C174.179 44.603 174.835 43.506 175.677 42.6044C176.519 41.6963 177.506 41.0069 178.64 40.5363C179.773 40.059 181.006 39.8204 182.339 39.8204C183.466 39.8204 184.516 39.9861 185.491 40.3175C186.465 40.6423 187.33 41.1063 188.086 41.7096C188.848 42.3128 189.475 43.0287 189.965 43.8573C190.456 44.6859 190.777 45.6007 190.93 46.6016H187.171ZM202.841 54.0391V45.1897H206.441V60.4624H202.951V57.7479H202.791C202.447 58.603 201.88 59.3024 201.091 59.8459C200.309 60.3895 199.344 60.6613 198.198 60.6613C197.197 60.6613 196.312 60.4392 195.543 59.9951C194.781 59.5443 194.184 58.8914 193.753 58.0363C193.322 57.1745 193.107 56.1338 193.107 54.9141V45.1897H196.706V54.3573C196.706 55.3251 196.971 56.094 197.502 56.6641C198.032 57.2342 198.728 57.5192 199.59 57.5192C200.12 57.5192 200.634 57.39 201.131 57.1314C201.628 56.8729 202.036 56.4884 202.354 55.978C202.679 55.461 202.841 54.8147 202.841 54.0391ZM208.742 60.4624V45.1897H212.341V60.4624H208.742ZM210.552 43.0221C209.982 43.0221 209.491 42.8331 209.08 42.4553C208.669 42.0708 208.464 41.6101 208.464 41.0732C208.464 40.5296 208.669 40.0689 209.08 39.6911C209.491 39.3066 209.982 39.1144 210.552 39.1144C211.128 39.1144 211.619 39.3066 212.023 39.6911C212.434 40.0689 212.64 40.5296 212.64 41.0732C212.64 41.6101 212.434 42.0708 212.023 42.4553C211.619 42.8331 211.128 43.0221 210.552 43.0221ZM222.269 45.1897V47.9738H213.489V45.1897H222.269ZM215.657 41.5306H219.256V55.8687C219.256 56.3526 219.329 56.7238 219.475 56.9823C219.628 57.2342 219.826 57.4065 220.072 57.4993C220.317 57.5921 220.589 57.6385 220.887 57.6385C221.112 57.6385 221.318 57.622 221.504 57.5888C221.696 57.5557 221.842 57.5258 221.941 57.4993L222.548 60.3133C222.355 60.3795 222.08 60.4525 221.722 60.532C221.371 60.6116 220.94 60.658 220.43 60.6712C219.528 60.6977 218.716 60.5618 217.994 60.2635C217.271 59.9586 216.698 59.488 216.273 58.8516C215.856 58.2152 215.65 57.4198 215.657 56.4652V41.5306ZM228.274 60.7706C227.307 60.7706 226.435 60.5983 225.659 60.2536C224.89 59.9023 224.28 59.3852 223.83 58.7025C223.386 58.0197 223.164 57.1778 223.164 56.1769C223.164 55.3151 223.323 54.6026 223.641 54.0391C223.959 53.4757 224.393 53.0249 224.943 52.6868C225.494 52.3488 226.113 52.0936 226.803 51.9212C227.499 51.7422 228.218 51.613 228.96 51.5334C229.855 51.4406 230.581 51.3578 231.138 51.2848C231.695 51.2053 232.099 51.086 232.351 50.9269C232.61 50.7612 232.739 50.506 232.739 50.1613V50.1016C232.739 49.3526 232.517 48.7725 232.073 48.3615C231.628 47.9506 230.989 47.7451 230.154 47.7451C229.272 47.7451 228.573 47.9373 228.056 48.3218C227.545 48.7062 227.2 49.1603 227.021 49.684L223.661 49.2067C223.926 48.2787 224.363 47.5031 224.973 46.88C225.583 46.2503 226.329 45.7796 227.21 45.4681C228.092 45.1499 229.066 44.9908 230.134 44.9908C230.869 44.9908 231.602 45.077 232.331 45.2493C233.06 45.4217 233.727 45.7067 234.33 46.1044C234.933 46.4955 235.417 47.0292 235.781 47.7053C236.153 48.3814 236.338 49.2266 236.338 50.2408V60.4624H232.878V58.3644H232.759C232.54 58.7886 232.232 59.1864 231.834 59.5576C231.443 59.9222 230.949 60.2171 230.352 60.4425C229.762 60.6613 229.07 60.7706 228.274 60.7706ZM229.209 58.1258C229.932 58.1258 230.558 57.9832 231.088 57.6982C231.619 57.4065 232.026 57.0221 232.311 56.5448C232.603 56.0675 232.749 55.5472 232.749 54.9837V53.184C232.636 53.2768 232.444 53.363 232.172 53.4425C231.907 53.5221 231.609 53.5917 231.277 53.6513C230.946 53.711 230.618 53.764 230.293 53.8104C229.968 53.8568 229.686 53.8966 229.448 53.9297C228.911 54.0026 228.43 54.122 228.006 54.2877C227.582 54.4534 227.247 54.6854 227.002 54.9837C226.756 55.2754 226.634 55.6532 226.634 56.1172C226.634 56.7801 226.876 57.2806 227.36 57.6187C227.843 57.9567 228.46 58.1258 229.209 58.1258ZM238.558 60.4624V45.1897H242.048V47.7351H242.207C242.485 46.8535 242.962 46.1741 243.639 45.6968C244.321 45.2129 245.1 44.9709 245.975 44.9709C246.174 44.9709 246.396 44.9809 246.641 45.0008C246.893 45.014 247.102 45.0372 247.268 45.0704V48.3814C247.115 48.3284 246.873 48.282 246.542 48.2422C246.217 48.1958 245.902 48.1726 245.597 48.1726C244.941 48.1726 244.351 48.3151 243.827 48.6002C243.31 48.8786 242.903 49.2664 242.604 49.7635C242.306 50.2607 242.157 50.8341 242.157 51.4837V60.4624H238.558Z" fill="white"/>
<path d="M104.914 57.9826V43.4372H110.369C111.486 43.4372 112.424 43.6455 113.181 44.0622C113.944 44.4788 114.519 45.0517 114.907 45.7809C115.3 46.5053 115.497 47.3292 115.497 48.2525C115.497 49.1853 115.3 50.0139 114.907 50.7383C114.514 51.4627 113.934 52.0333 113.167 52.4499C112.4 52.8619 111.456 53.0678 110.333 53.0678H106.718V50.9016H109.978C110.632 50.9016 111.167 50.788 111.583 50.5607C112 50.3335 112.308 50.021 112.507 49.6232C112.71 49.2255 112.812 48.7686 112.812 48.2525C112.812 47.7364 112.71 47.2818 112.507 46.8889C112.308 46.4959 111.998 46.1905 111.576 45.9727C111.16 45.7501 110.622 45.6389 109.964 45.6389H107.549V57.9826H104.914ZM139.133 58.2028C138.442 58.2028 137.819 58.0797 137.265 57.8335C136.716 57.5825 136.28 57.2132 135.958 56.7255C135.641 56.2378 135.482 55.6365 135.482 54.9215C135.482 54.306 135.596 53.797 135.823 53.3945C136.051 52.9921 136.361 52.6701 136.754 52.4286C137.147 52.1872 137.589 52.0049 138.082 51.8818C138.579 51.7539 139.093 51.6616 139.623 51.6048C140.262 51.5385 140.781 51.4793 141.178 51.4272C141.576 51.3704 141.865 51.2852 142.045 51.1715C142.23 51.0532 142.322 50.8709 142.322 50.6247V50.582C142.322 50.047 142.163 49.6327 141.846 49.3391C141.529 49.0456 141.072 48.8988 140.475 48.8988C139.846 48.8988 139.346 49.0361 138.977 49.3107C138.612 49.5854 138.366 49.9097 138.238 50.2837L135.837 49.9428C136.027 49.28 136.339 48.726 136.775 48.2809C137.211 47.8311 137.743 47.4949 138.373 47.2724C139.003 47.0451 139.699 46.9315 140.461 46.9315C140.987 46.9315 141.51 46.993 142.031 47.1161C142.551 47.2392 143.027 47.4428 143.458 47.7269C143.889 48.0063 144.235 48.3874 144.495 48.8704C144.76 49.3533 144.893 49.957 144.893 50.6815V57.9826H142.421V56.484H142.336C142.18 56.7871 141.96 57.0711 141.676 57.3363C141.396 57.5967 141.043 57.8074 140.617 57.9684C140.196 58.1247 139.701 58.2028 139.133 58.2028ZM139.801 56.3136C140.317 56.3136 140.764 56.2118 141.143 56.0082C141.522 55.7998 141.813 55.5252 142.016 55.1843C142.225 54.8434 142.329 54.4717 142.329 54.0693V52.7837C142.248 52.85 142.111 52.9116 141.917 52.9684C141.728 53.0252 141.515 53.0749 141.278 53.1175C141.041 53.1602 140.807 53.198 140.575 53.2312C140.343 53.2643 140.141 53.2927 139.971 53.3164C139.587 53.3685 139.244 53.4537 138.941 53.5721C138.638 53.6905 138.399 53.8562 138.224 54.0693C138.049 54.2776 137.961 54.5475 137.961 54.8789C137.961 55.3524 138.134 55.7099 138.48 55.9514C138.825 56.1928 139.266 56.3136 139.801 56.3136ZM151.485 62.0735C151.135 62.0735 150.811 62.0451 150.512 61.9883C150.219 61.9362 149.985 61.8747 149.809 61.8036L150.406 59.8008C150.78 59.9097 151.114 59.9618 151.407 59.957C151.701 59.9523 151.959 59.86 152.182 59.68C152.409 59.5049 152.601 59.2113 152.757 58.7994L152.977 58.2099L149.021 47.0735H151.748L154.262 55.3122H154.376L156.897 47.0735H159.632L155.264 59.3036C155.06 59.8813 154.79 60.3761 154.454 60.788C154.118 61.2047 153.706 61.5219 153.218 61.7397C152.735 61.9622 152.158 62.0735 151.485 62.0735Z" fill="black"/>
<path d="M119.113 43.839L131.076 51.9882L119.115 60.1405L119.113 43.839Z" fill="white" stroke="black"/>
<g style="mix-blend-mode:color-dodge" opacity="0.9">
<path d="M112.605 128H106.98L117.222 98.9091H123.727L133.983 128H128.358L120.588 104.875H120.361L112.605 128ZM112.79 116.594H128.131V120.827H112.79V116.594ZM139.249 136.182C138.548 136.182 137.9 136.125 137.303 136.011C136.716 135.907 136.247 135.784 135.897 135.642L137.09 131.636C137.838 131.854 138.506 131.958 139.093 131.949C139.68 131.939 140.196 131.755 140.641 131.395C141.096 131.045 141.479 130.457 141.792 129.634L142.232 128.455L134.32 106.182H139.775L144.803 122.659H145.03L150.073 106.182H155.542L146.806 130.642C146.399 131.797 145.859 132.787 145.187 133.611C144.514 134.444 143.69 135.079 142.715 135.514C141.749 135.959 140.594 136.182 139.249 136.182ZM160.3 136.182V106.182H165.357V109.79H165.655C165.92 109.259 166.294 108.696 166.777 108.099C167.26 107.493 167.913 106.977 168.737 106.551C169.561 106.116 170.612 105.898 171.891 105.898C173.576 105.898 175.096 106.329 176.45 107.19C177.814 108.043 178.894 109.307 179.689 110.983C180.494 112.65 180.896 114.695 180.896 117.119C180.896 119.515 180.503 121.551 179.717 123.227C178.931 124.903 177.861 126.182 176.507 127.062C175.153 127.943 173.619 128.384 171.905 128.384C170.655 128.384 169.618 128.175 168.794 127.759C167.97 127.342 167.307 126.84 166.806 126.253C166.313 125.656 165.93 125.093 165.655 124.562H165.442V136.182H160.3ZM165.342 117.091C165.342 118.502 165.541 119.738 165.939 120.798C166.346 121.859 166.929 122.687 167.686 123.284C168.453 123.871 169.381 124.165 170.47 124.165C171.607 124.165 172.558 123.862 173.325 123.256C174.092 122.64 174.67 121.802 175.058 120.741C175.456 119.671 175.655 118.455 175.655 117.091C175.655 115.737 175.461 114.534 175.073 113.483C174.684 112.432 174.107 111.608 173.34 111.011C172.573 110.415 171.616 110.116 170.47 110.116C169.372 110.116 168.439 110.405 167.672 110.983C166.905 111.561 166.323 112.37 165.925 113.412C165.537 114.454 165.342 115.68 165.342 117.091ZM188.954 136.182C188.253 136.182 187.604 136.125 187.008 136.011C186.421 135.907 185.952 135.784 185.601 135.642L186.795 131.636C187.543 131.854 188.21 131.958 188.797 131.949C189.385 131.939 189.901 131.755 190.346 131.395C190.8 131.045 191.184 130.457 191.496 129.634L191.937 128.455L184.025 106.182H189.479L194.508 122.659H194.735L199.778 106.182H205.246L196.511 130.642C196.103 131.797 195.564 132.787 194.891 133.611C194.219 134.444 193.395 135.079 192.42 135.514C191.454 135.959 190.298 136.182 188.954 136.182ZM222.561 122.02L229.039 106.182H233.186L224.365 128H220.772L212.149 106.182H216.255L222.561 122.02ZM214.962 106.182V128H210.005V106.182H214.962ZM230.374 128V106.182H235.289V128H230.374Z" fill="#FCF9F9"/>
</g>
<defs>
<linearGradient id="paint0_linear_11_55" x1="9.31034" y1="10.4046" x2="355.591" y2="178.427" gradientUnits="userSpaceOnUse">
<stop offset="0.0867052" stop-color="#A5912C"/>
<stop offset="0.930295" stop-color="#E0DA49"/>
</linearGradient>
</defs>
</svg>
