<svg width="360" height="180" viewBox="0 0 360 180" fill="none" xmlns="http://www.w3.org/2000/svg">
<rect x="2" y="2" width="356" height="176" rx="21" fill="url(#paint0_linear_11_109)" stroke="#18C0AC" stroke-width="4"/>
<rect x="93.1034" y="24.9711" width="177.701" height="50.9827" fill="black"/>
<rect x="101.466" y="32.2543" width="72.1258" height="36.4162" fill="white"/>
<path d="M195.909 46.6016C195.743 46.0647 195.514 45.5841 195.223 45.1599C194.938 44.729 194.593 44.3611 194.188 44.0562C193.791 43.7513 193.333 43.5226 192.816 43.3701C192.299 43.211 191.736 43.1315 191.126 43.1315C190.032 43.1315 189.058 43.4066 188.203 43.9568C187.348 44.5069 186.675 45.3157 186.184 46.3829C185.7 47.4435 185.458 48.7361 185.458 50.2607C185.458 51.7986 185.7 53.1012 186.184 54.1684C186.668 55.2356 187.341 56.0477 188.203 56.6045C189.064 57.1547 190.065 57.4298 191.205 57.4298C192.24 57.4298 193.134 57.2309 193.89 56.8332C194.652 56.4354 195.239 55.872 195.65 55.1428C196.061 54.407 196.267 53.5453 196.267 52.5576L197.102 52.6869H191.573V49.8033H199.836V52.2494C199.836 53.9927 199.465 55.5008 198.723 56.7735C197.98 58.0462 196.959 59.0273 195.66 59.7167C194.361 60.3995 192.869 60.7408 191.186 60.7408C189.31 60.7408 187.662 60.3199 186.244 59.4781C184.832 58.6296 183.728 57.4264 182.933 55.8687C182.144 54.3043 181.75 52.4482 181.75 50.3005C181.75 48.6566 181.982 47.1883 182.446 45.8957C182.916 44.6031 183.572 43.506 184.414 42.6045C185.256 41.6963 186.244 41.0069 187.377 40.5363C188.511 40.059 189.744 39.8204 191.076 39.8204C192.203 39.8204 193.254 39.9861 194.228 40.3175C195.203 40.6424 196.068 41.1064 196.823 41.7096C197.586 42.3128 198.212 43.0287 198.703 43.8573C199.193 44.6859 199.515 45.6007 199.667 46.6016H195.909ZM211.579 54.0391V45.1897H215.178V60.4624H211.688V57.7479H211.529C211.184 58.6031 210.617 59.3024 209.829 59.846C209.046 60.3895 208.082 60.6613 206.935 60.6613C205.934 60.6613 205.049 60.4392 204.28 59.9951C203.518 59.5443 202.921 58.8914 202.491 58.0363C202.06 57.1746 201.844 56.1338 201.844 54.9141V45.1897H205.444V54.3573C205.444 55.3251 205.709 56.0941 206.239 56.6641C206.769 57.2342 207.465 57.5193 208.327 57.5193C208.857 57.5193 209.371 57.39 209.868 57.1315C210.366 56.8729 210.773 56.4885 211.091 55.9781C211.416 55.461 211.579 54.8147 211.579 54.0391ZM217.479 60.4624V45.1897H221.079V60.4624H217.479ZM219.289 43.0221C218.719 43.0221 218.228 42.8332 217.817 42.4553C217.406 42.0709 217.201 41.6102 217.201 41.0732C217.201 40.5297 217.406 40.069 217.817 39.6911C218.228 39.3067 218.719 39.1144 219.289 39.1144C219.866 39.1144 220.356 39.3067 220.761 39.6911C221.172 40.069 221.377 40.5297 221.377 41.0732C221.377 41.6102 221.172 42.0709 220.761 42.4553C220.356 42.8332 219.866 43.0221 219.289 43.0221ZM231.007 45.1897V47.9738H222.227V45.1897H231.007ZM224.394 41.5306H227.994V55.8687C227.994 56.3526 228.067 56.7238 228.213 56.9823C228.365 57.2342 228.564 57.4066 228.809 57.4994C229.054 57.5922 229.326 57.6386 229.624 57.6386C229.85 57.6386 230.055 57.622 230.241 57.5889C230.433 57.5557 230.579 57.5259 230.678 57.4994L231.285 60.3133C231.093 60.3796 230.818 60.4525 230.46 60.532C230.108 60.6116 229.677 60.658 229.167 60.6712C228.266 60.6978 227.454 60.5619 226.731 60.2636C226.008 59.9586 225.435 59.488 225.011 58.8516C224.593 58.2153 224.388 57.4198 224.394 56.4653V41.5306ZM237.012 60.7707C236.044 60.7707 235.172 60.5983 234.397 60.2536C233.628 59.9023 233.018 59.3853 232.567 58.7025C232.123 58.0197 231.901 57.1779 231.901 56.1769C231.901 55.3152 232.06 54.6026 232.378 54.0391C232.696 53.4757 233.131 53.0249 233.681 52.6869C234.231 52.3488 234.851 52.0936 235.54 51.9212C236.236 51.7423 236.955 51.613 237.698 51.5335C238.593 51.4407 239.319 51.3578 239.875 51.2849C240.432 51.2053 240.837 51.086 241.088 50.9269C241.347 50.7612 241.476 50.506 241.476 50.1613V50.1016C241.476 49.3526 241.254 48.7726 240.81 48.3616C240.366 47.9506 239.726 47.7451 238.891 47.7451C238.009 47.7451 237.31 47.9373 236.793 48.3218C236.283 48.7063 235.938 49.1603 235.759 49.684L232.398 49.2068C232.663 48.2787 233.101 47.5032 233.711 46.88C234.32 46.2503 235.066 45.7797 235.948 45.4681C236.829 45.1499 237.804 44.9908 238.871 44.9908C239.607 44.9908 240.339 45.077 241.069 45.2494C241.798 45.4217 242.464 45.7068 243.067 46.1045C243.67 46.4956 244.154 47.0292 244.519 47.7053C244.89 48.3815 245.076 49.2266 245.076 50.2408V60.4624H241.615V58.3644H241.496C241.277 58.7887 240.969 59.1864 240.571 59.5576C240.18 59.9222 239.686 60.2172 239.09 60.4425C238.5 60.6613 237.807 60.7707 237.012 60.7707ZM237.946 58.1258C238.669 58.1258 239.295 57.9833 239.826 57.6982C240.356 57.4066 240.764 57.0221 241.049 56.5448C241.34 56.0675 241.486 55.5472 241.486 54.9837V53.184C241.373 53.2768 241.181 53.363 240.909 53.4425C240.644 53.5221 240.346 53.5917 240.015 53.6514C239.683 53.711 239.355 53.764 239.03 53.8104C238.705 53.8568 238.424 53.8966 238.185 53.9298C237.648 54.0027 237.168 54.122 236.743 54.2877C236.319 54.4534 235.984 54.6854 235.739 54.9837C235.494 55.2754 235.371 55.6532 235.371 56.1173C235.371 56.7801 235.613 57.2806 236.097 57.6187C236.581 57.9568 237.197 58.1258 237.946 58.1258ZM247.295 60.4624V45.1897H250.785V47.7352H250.944C251.223 46.8535 251.7 46.1741 252.376 45.6968C253.059 45.2129 253.838 44.971 254.713 44.971C254.911 44.971 255.134 44.9809 255.379 45.0008C255.631 45.014 255.839 45.0372 256.005 45.0704V48.3815C255.853 48.3284 255.611 48.282 255.279 48.2423C254.955 48.1959 254.64 48.1727 254.335 48.1727C253.679 48.1727 253.089 48.3152 252.565 48.6002C252.048 48.8786 251.64 49.2664 251.342 49.7636C251.044 50.2607 250.894 50.8341 250.894 51.4837V60.4624H247.295Z" fill="white"/>
<path d="M110.186 57.9827V43.4372H115.64C116.758 43.4372 117.695 43.6455 118.453 44.0622C119.215 44.4789 119.79 45.0518 120.179 45.7809C120.572 46.5054 120.768 47.3292 120.768 48.2525C120.768 49.1853 120.572 50.0139 120.179 50.7383C119.786 51.4628 119.206 52.0333 118.439 52.45C117.672 52.8619 116.727 53.0679 115.605 53.0679H111.99V50.9017H115.25C115.903 50.9017 116.438 50.788 116.855 50.5608C117.271 50.3335 117.579 50.021 117.778 49.6233C117.982 49.2255 118.083 48.7686 118.083 48.2525C118.083 47.7364 117.982 47.2819 117.778 46.8889C117.579 46.4959 117.269 46.1905 116.848 45.9727C116.431 45.7502 115.894 45.6389 115.235 45.6389H112.821V57.9827H110.186ZM144.404 58.2028C143.713 58.2028 143.09 58.0797 142.536 57.8335C141.987 57.5826 141.552 57.2132 141.23 56.7255C140.912 56.2379 140.754 55.6365 140.754 54.9216C140.754 54.306 140.867 53.797 141.095 53.3946C141.322 52.9921 141.632 52.6702 142.025 52.4287C142.418 52.1872 142.861 52.0049 143.353 51.8818C143.85 51.754 144.364 51.6616 144.894 51.6048C145.534 51.5385 146.052 51.4793 146.45 51.4273C146.847 51.3704 147.136 51.2852 147.316 51.1716C147.501 51.0532 147.593 50.8709 147.593 50.6247V50.5821C147.593 50.047 147.435 49.6327 147.117 49.3392C146.8 49.0456 146.343 48.8988 145.747 48.8988C145.117 48.8988 144.617 49.0362 144.248 49.3108C143.883 49.5854 143.637 49.9097 143.509 50.2838L141.109 49.9429C141.298 49.28 141.611 48.726 142.046 48.2809C142.482 47.8311 143.015 47.495 143.644 47.2724C144.274 47.0452 144.97 46.9315 145.732 46.9315C146.258 46.9315 146.781 46.9931 147.302 47.1162C147.823 47.2393 148.299 47.4429 148.73 47.727C149.16 48.0063 149.506 48.3875 149.767 48.8704C150.032 49.3534 150.164 49.9571 150.164 50.6815V57.9827H147.693V56.4841H147.607C147.451 56.7871 147.231 57.0712 146.947 57.3363C146.668 57.5968 146.315 57.8075 145.889 57.9684C145.467 58.1247 144.972 58.2028 144.404 58.2028ZM145.072 56.3136C145.588 56.3136 146.035 56.2118 146.414 56.0082C146.793 55.7999 147.084 55.5253 147.288 55.1844C147.496 54.8434 147.6 54.4718 147.6 54.0693V52.7838C147.52 52.8501 147.383 52.9116 147.188 52.9684C146.999 53.0253 146.786 53.075 146.549 53.1176C146.312 53.1602 146.078 53.1981 145.846 53.2312C145.614 53.2644 145.413 53.2928 145.242 53.3165C144.859 53.3685 144.516 53.4538 144.213 53.5721C143.91 53.6905 143.67 53.8562 143.495 54.0693C143.32 54.2776 143.232 54.5475 143.232 54.879C143.232 55.3524 143.405 55.7099 143.751 55.9514C144.097 56.1929 144.537 56.3136 145.072 56.3136ZM156.757 62.0736C156.406 62.0736 156.082 62.0452 155.784 61.9883C155.49 61.9362 155.256 61.8747 155.081 61.8037L155.677 59.8008C156.051 59.9097 156.385 59.9618 156.679 59.9571C156.972 59.9523 157.23 59.86 157.453 59.6801C157.68 59.5049 157.872 59.2113 158.028 58.7994L158.248 58.2099L154.292 47.0736H157.02L159.534 55.3122H159.647L162.169 47.0736H164.903L160.535 59.3037C160.332 59.8813 160.062 60.3761 159.726 60.788C159.389 61.2047 158.977 61.5219 158.49 61.7398C158.007 61.9623 157.429 62.0736 156.757 62.0736Z" fill="black"/>
<path d="M125.155 43.8134L137.767 51.9883L125.157 60.1662L125.155 43.8134Z" fill="white" stroke="black"/>
<g style="mix-blend-mode:color-dodge" opacity="0.9">
<path d="M116.236 109.58H111.986C111.865 108.883 111.642 108.265 111.316 107.727C110.99 107.182 110.585 106.72 110.1 106.341C109.615 105.962 109.062 105.678 108.441 105.489C107.827 105.292 107.164 105.193 106.452 105.193C105.187 105.193 104.066 105.511 103.089 106.148C102.111 106.777 101.346 107.701 100.793 108.92C100.24 110.133 99.9636 111.614 99.9636 113.364C99.9636 115.144 100.24 116.644 100.793 117.864C101.354 119.076 102.119 119.992 103.089 120.614C104.066 121.227 105.183 121.534 106.441 121.534C107.138 121.534 107.789 121.443 108.395 121.261C109.009 121.072 109.558 120.795 110.043 120.432C110.536 120.068 110.948 119.621 111.282 119.091C111.623 118.561 111.858 117.955 111.986 117.273L116.236 117.295C116.077 118.402 115.733 119.439 115.202 120.409C114.679 121.379 113.994 122.235 113.145 122.977C112.297 123.712 111.304 124.288 110.168 124.705C109.032 125.114 107.77 125.318 106.384 125.318C104.339 125.318 102.513 124.845 100.907 123.898C99.3007 122.951 98.0355 121.583 97.1113 119.795C96.1871 118.008 95.7249 115.864 95.7249 113.364C95.7249 110.856 96.1908 108.712 97.1227 106.932C98.0545 105.144 99.3234 103.777 100.929 102.83C102.536 101.883 104.354 101.409 106.384 101.409C107.679 101.409 108.884 101.591 109.998 101.955C111.111 102.318 112.104 102.852 112.975 103.557C113.846 104.254 114.562 105.11 115.123 106.125C115.691 107.133 116.062 108.284 116.236 109.58ZM119.921 110.92V107.545H135.193V110.92H129.546V125H125.568V110.92H119.921ZM143.733 125.352C142.627 125.352 141.631 125.155 140.744 124.761C139.866 124.36 139.169 123.769 138.653 122.989C138.146 122.208 137.892 121.246 137.892 120.102C137.892 119.117 138.074 118.303 138.438 117.659C138.801 117.015 139.297 116.5 139.926 116.114C140.555 115.727 141.263 115.436 142.051 115.239C142.847 115.034 143.669 114.886 144.517 114.795C145.54 114.689 146.369 114.595 147.006 114.511C147.642 114.42 148.104 114.284 148.392 114.102C148.688 113.913 148.835 113.621 148.835 113.227V113.159C148.835 112.303 148.581 111.64 148.074 111.17C147.566 110.701 146.835 110.466 145.881 110.466C144.873 110.466 144.074 110.686 143.483 111.125C142.9 111.564 142.506 112.083 142.301 112.682L138.46 112.136C138.763 111.076 139.263 110.189 139.96 109.477C140.657 108.758 141.51 108.22 142.517 107.864C143.525 107.5 144.638 107.318 145.858 107.318C146.699 107.318 147.536 107.417 148.369 107.614C149.203 107.811 149.964 108.136 150.653 108.591C151.343 109.038 151.896 109.648 152.313 110.42C152.737 111.193 152.949 112.159 152.949 113.318V125H148.994V122.602H148.858C148.608 123.087 148.256 123.542 147.801 123.966C147.354 124.383 146.79 124.72 146.108 124.977C145.434 125.227 144.642 125.352 143.733 125.352ZM144.801 122.33C145.627 122.33 146.343 122.167 146.949 121.841C147.555 121.508 148.021 121.068 148.347 120.523C148.68 119.977 148.847 119.383 148.847 118.739V116.682C148.718 116.788 148.498 116.886 148.188 116.977C147.885 117.068 147.544 117.148 147.165 117.216C146.786 117.284 146.411 117.345 146.04 117.398C145.669 117.451 145.347 117.496 145.074 117.534C144.46 117.617 143.911 117.754 143.426 117.943C142.941 118.133 142.559 118.398 142.278 118.739C141.998 119.072 141.858 119.504 141.858 120.034C141.858 120.792 142.135 121.364 142.688 121.75C143.241 122.136 143.945 122.33 144.801 122.33ZM170.034 114.568V117.943H160.738V114.568H170.034ZM162.011 107.545V125H158.045V107.545H162.011ZM172.727 107.545V125H168.773V107.545H172.727ZM176.304 130.068V121.614H177.69C178.061 121.326 178.372 120.936 178.622 120.443C178.872 119.943 179.076 119.356 179.235 118.682C179.402 118 179.538 117.239 179.644 116.398C179.751 115.549 179.845 114.636 179.929 113.659L180.429 107.545H193.042V121.614H195.747V130.068H191.769V125H180.349V130.068H176.304ZM181.917 121.614H189.11V110.864H183.997L183.724 113.659C183.572 115.508 183.372 117.091 183.122 118.409C182.872 119.727 182.47 120.795 181.917 121.614ZM204.8 125.352C203.694 125.352 202.698 125.155 201.812 124.761C200.933 124.36 200.236 123.769 199.721 122.989C199.213 122.208 198.96 121.246 198.96 120.102C198.96 119.117 199.141 118.303 199.505 117.659C199.869 117.015 200.365 116.5 200.994 116.114C201.622 115.727 202.331 115.436 203.119 115.239C203.914 115.034 204.736 114.886 205.585 114.795C206.607 114.689 207.437 114.595 208.073 114.511C208.71 114.42 209.172 114.284 209.46 114.102C209.755 113.913 209.903 113.621 209.903 113.227V113.159C209.903 112.303 209.649 111.64 209.141 111.17C208.634 110.701 207.903 110.466 206.948 110.466C205.941 110.466 205.141 110.686 204.55 111.125C203.967 111.564 203.573 112.083 203.369 112.682L199.528 112.136C199.831 111.076 200.331 110.189 201.028 109.477C201.725 108.758 202.577 108.22 203.585 107.864C204.592 107.5 205.706 107.318 206.925 107.318C207.766 107.318 208.604 107.417 209.437 107.614C210.27 107.811 211.032 108.136 211.721 108.591C212.41 109.038 212.963 109.648 213.38 110.42C213.804 111.193 214.016 112.159 214.016 113.318V125H210.062V122.602H209.925C209.675 123.087 209.323 123.542 208.869 123.966C208.422 124.383 207.857 124.72 207.175 124.977C206.501 125.227 205.71 125.352 204.8 125.352ZM205.869 122.33C206.694 122.33 207.41 122.167 208.016 121.841C208.622 121.508 209.088 121.068 209.414 120.523C209.747 119.977 209.914 119.383 209.914 118.739V116.682C209.785 116.788 209.566 116.886 209.255 116.977C208.952 117.068 208.611 117.148 208.232 117.216C207.854 117.284 207.479 117.345 207.107 117.398C206.736 117.451 206.414 117.496 206.141 117.534C205.528 117.617 204.979 117.754 204.494 117.943C204.009 118.133 203.626 118.398 203.346 118.739C203.066 119.072 202.925 119.504 202.925 120.034C202.925 120.792 203.202 121.364 203.755 121.75C204.308 122.136 205.013 122.33 205.869 122.33ZM219.113 131.545V107.545H223.158V110.432H223.397C223.609 110.008 223.908 109.557 224.295 109.08C224.681 108.595 225.204 108.182 225.863 107.841C226.522 107.492 227.363 107.318 228.385 107.318C229.734 107.318 230.95 107.663 232.033 108.352C233.124 109.034 233.988 110.045 234.624 111.386C235.268 112.72 235.59 114.356 235.59 116.295C235.59 118.212 235.276 119.841 234.647 121.182C234.018 122.523 233.162 123.545 232.079 124.25C230.995 124.955 229.768 125.307 228.397 125.307C227.397 125.307 226.567 125.14 225.908 124.807C225.249 124.473 224.719 124.072 224.317 123.602C223.923 123.125 223.617 122.674 223.397 122.25H223.226V131.545H219.113ZM223.147 116.273C223.147 117.402 223.306 118.39 223.624 119.239C223.95 120.087 224.416 120.75 225.022 121.227C225.635 121.697 226.378 121.932 227.249 121.932C228.158 121.932 228.92 121.689 229.533 121.205C230.147 120.712 230.609 120.042 230.92 119.193C231.238 118.337 231.397 117.364 231.397 116.273C231.397 115.189 231.242 114.227 230.931 113.386C230.62 112.545 230.158 111.886 229.545 111.409C228.931 110.932 228.166 110.693 227.249 110.693C226.37 110.693 225.624 110.924 225.01 111.386C224.397 111.848 223.931 112.496 223.613 113.33C223.302 114.163 223.147 115.144 223.147 116.273ZM238.149 110.92V107.545H253.422V110.92H247.774V125H243.797V110.92H238.149Z" fill="#FCF9F9"/>
</g>
<defs>
<linearGradient id="paint0_linear_11_109" x1="9.31034" y1="10.4046" x2="355.591" y2="178.427" gradientUnits="userSpaceOnUse">
<stop offset="0.0867052" stop-color="#5537CD"/>
<stop offset="0.930295" stop-color="#8232D1"/>
</linearGradient>
</defs>
</svg>
