<svg width="32" height="28" viewBox="0 0 32 28" fill="none" xmlns="http://www.w3.org/2000/svg">
<path d="M31.1111 0L30.148 3.0017H27.6474L23.1441 21.0119H5.98241L0 4.50255H21.7933L21.0622 7.50424H3.89926L7.70648 18.0102H21.2243L25.6732 0H31.1111ZM11.0185 22.5127C9.94519 22.5127 9.07407 23.5213 9.07407 24.764C9.07407 26.0082 9.94519 27.0153 11.0185 27.0153C12.0919 27.0153 12.963 26.0082 12.963 24.764C12.963 23.5213 12.0919 22.5127 11.0185 22.5127ZM17.5 22.5127C16.4267 22.5127 15.5556 23.5198 15.5556 24.764C15.5556 26.0082 16.4267 27.0153 17.5 27.0153C18.5733 27.0153 19.4444 26.0082 19.4444 24.764C19.4444 23.5213 18.5733 22.5127 17.5 22.5127Z" fill="white"/>
</svg>
