<svg width="85" height="74" viewBox="0 0 85 74" fill="none" xmlns="http://www.w3.org/2000/svg">
<path d="M14.1668 24.6664H10.6252M74.3752 24.6664H70.8335M42.5002 9.24975V15.4164M37.1877 15.4164H47.8127M21.2502 46.2498H31.8752M53.1252 46.2498H63.7502M54.9314 8.72559H30.0689C21.2502 8.72559 19.3022 12.5489 18.1689 17.2356L14.1668 33.9164H70.8335L66.8314 17.2356C65.6981 12.5489 63.7502 8.72559 54.9314 8.72559V8.72559ZM77.8814 61.1114C78.271 64.7189 74.9418 67.8331 70.6918 67.8331H64.0335C60.2085 67.8331 59.6773 66.4147 59.0043 64.6572L58.296 62.8073C57.3043 60.2789 56.6668 58.5831 51.5668 58.5831H33.4335C28.3335 58.5831 27.5897 60.4948 26.7043 62.8073L25.996 64.6572C25.3231 66.4147 24.7918 67.8331 20.9668 67.8331H14.3085C10.0585 67.8331 6.72933 64.7189 7.11892 61.1114L9.10225 42.3339C9.59808 37.7089 10.6252 33.9164 19.9043 33.9164H65.096C74.3752 33.9164 75.4023 37.7089 75.8981 42.3339L77.8814 61.1114Z" stroke="black" stroke-width="1.5" stroke-linecap="round" stroke-linejoin="round"/>
</svg>
