<svg width="86" height="84" viewBox="0 0 86 84" fill="none" xmlns="http://www.w3.org/2000/svg">
<path d="M7.16699 44.1348H68.0837" stroke="black" stroke-width="1.5" stroke-miterlimit="10" stroke-linecap="round" stroke-linejoin="round"/>
<path d="M68.0837 35.9798V61.0048C67.9762 70.9798 65.1812 73.4998 54.5387 73.4998H20.712C9.89033 73.4998 7.16699 70.8748 7.16699 60.4448V35.9798C7.16699 26.5298 9.42449 23.4848 17.917 22.9948C18.777 22.9598 19.7087 22.9248 20.712 22.9248H54.5387C65.3603 22.9248 68.0837 25.5498 68.0837 35.9798Z" stroke="black" stroke-width="1.5" stroke-linecap="round" stroke-linejoin="round"/>
<path d="M78.8337 23.555V48.02C78.8337 57.47 76.5762 60.515 68.0837 61.005V35.98C68.0837 25.55 65.3603 22.925 54.5387 22.925H20.712C19.7087 22.925 18.777 22.96 17.917 22.995C18.0245 13.02 20.8195 10.5 31.462 10.5H65.2887C76.1103 10.5 78.8337 13.125 78.8337 23.555Z" stroke="black" stroke-width="1.5" stroke-linecap="round" stroke-linejoin="round"/>
<path d="M18.8125 62.335H24.9758M32.6442 62.335H44.9708" stroke="black" stroke-width="1.5" stroke-miterlimit="10" stroke-linecap="round" stroke-linejoin="round"/>
</svg>
