<svg width="86" height="84" viewBox="0 0 86 84" fill="none" xmlns="http://www.w3.org/2000/svg">
<path d="M43 19.46H78.8333" stroke="black" stroke-width="1.5" stroke-miterlimit="10" stroke-linecap="round" stroke-linejoin="round"/>
<path d="M50.955 7H70.8783C77.2567 7 78.8333 8.54 78.8333 14.7V29.085C78.8333 35.245 77.2567 36.785 70.8783 36.785H50.955C44.5767 36.785 43 35.245 43 29.085V14.7C43 8.54 44.5767 7 50.955 7V7Z" stroke="black" stroke-width="1.5" stroke-linecap="round" stroke-linejoin="round"/>
<path d="M7.16699 59.71H43.0003" stroke="black" stroke-width="1.5" stroke-miterlimit="10" stroke-linecap="round" stroke-linejoin="round"/>
<path d="M78.8337 52.5C78.8337 66.045 67.6178 77 53.7503 77L57.5128 70.875M7.16699 31.5C7.16699 17.955 18.3828 7 32.2503 7L28.4878 13.125M15.122 47.25H35.0453C41.4237 47.25 43.0003 48.79 43.0003 54.95V69.335C43.0003 75.495 41.4237 77.035 35.0453 77.035H15.122C8.74366 77.035 7.16699 75.495 7.16699 69.335V54.95C7.16699 48.79 8.74366 47.25 15.122 47.25Z" stroke="black" stroke-width="1.5" stroke-linecap="round" stroke-linejoin="round"/>
</svg>
