<svg width="89" height="79" viewBox="0 0 89 79" fill="none" xmlns="http://www.w3.org/2000/svg">
<path d="M32.1582 47.1696C32.1582 51.4158 35.8295 54.8392 40.3907 54.8392H49.6986C53.6665 54.8392 56.8928 51.8438 56.8928 48.1571C56.8928 44.1413 54.9274 42.7258 51.9978 41.8042L37.0532 37.1958C34.1236 36.2742 32.1582 34.8588 32.1582 30.8429C32.1582 27.1562 35.3845 24.1608 39.3524 24.1608H48.6603C53.2215 24.1608 56.8928 27.5842 56.8928 31.8304M44.4995 19.75V59.25" stroke="black" stroke-width="1.5" stroke-linecap="round" stroke-linejoin="round"/>
<path d="M55.6253 72.4163H33.3753C14.8337 72.4163 7.41699 65.833 7.41699 49.3747V29.6247C7.41699 13.1663 14.8337 6.58301 33.3753 6.58301H55.6253C74.167 6.58301 81.5837 13.1663 81.5837 29.6247V49.3747C81.5837 65.833 74.167 72.4163 55.6253 72.4163Z" stroke="black" stroke-width="1.5" stroke-linecap="round" stroke-linejoin="round"/>
</svg>
