<svg width="30" height="27" viewBox="0 0 30 27" fill="none" xmlns="http://www.w3.org/2000/svg">
<path d="M15 9.74399C15.2925 8.41778 16.9338 2.36814 21.7275 2.36814C24.5025 2.36814 27.5 4.2047 27.5 8.29227C27.5 12.9186 22.9662 18.3217 15 23.2465C7.03375 18.3217 2.5 12.9186 2.5 8.29227C2.5 4.16681 5.46125 2.36577 8.22125 2.36577C13.125 2.36577 14.6525 8.43554 15 9.74399ZM0 8.29227C0 13.1092 3.825 19.5189 15 26.0504C26.175 19.5189 30 13.1092 30 8.29227C30 -1.13566 17.94 -2.39792 15 3.86723C12.0775 -2.36359 0 -1.18894 0 8.29227Z" fill="white"/>
</svg>
