<svg width="51" height="59" viewBox="0 0 51 59" fill="none" xmlns="http://www.w3.org/2000/svg">
<path d="M0 40.6377L1.98693 39.1727L10.8905 54.5894L47.7966 31.6372L49.7836 34.0789L10.8907 58.0077L0 40.6377ZM0.749672 32.2783L2.26301 31.3016L11.1667 47.2066L48.0728 24.7428L49.5862 27.6729L11.1667 51.1134L0.749672 32.2783ZM0.269509 23.4405L39.6359 0L51 20.3001L11.6336 43.7406L0.269509 23.4405ZM25.8388 12.6969C21.1316 12.6969 17.3157 16.6324 17.3157 21.4871C17.3157 26.3418 21.1316 30.2772 25.8388 30.2772C30.5459 30.2772 34.3619 26.3418 34.3619 21.4871C34.3619 16.6324 30.5459 12.6969 25.8388 12.6969ZM29.7597 27.038L28.464 27.8096L27.7519 26.5376L26.3898 27.0854L25.2513 27.2588L24.7514 25.4492L25.9373 25.3028L27.2228 24.7819C27.6106 24.5483 27.8912 24.2814 28.0646 23.9814C28.2379 23.6813 28.2538 23.3938 28.1125 23.1189C27.9682 22.8633 27.7177 22.7177 27.3612 22.6821L25.9485 22.8174C25.1167 22.9963 24.3842 23.0143 23.7508 22.8718C23.1175 22.7292 22.6122 22.3331 22.2353 21.6837C21.8929 21.0655 21.7929 20.4294 21.935 19.7754C22.0772 19.1214 22.4709 18.507 23.116 17.9322L22.3971 16.6481L23.6832 15.8823L24.3491 17.0718L25.5416 16.5645L26.4901 16.3917L26.9662 18.1539L26.0896 18.2736L24.7484 18.8343C24.3339 19.0927 24.0855 19.3503 24.0029 19.6075C23.9204 19.8646 23.9383 20.0916 24.0568 20.2885C24.1714 20.5054 24.4066 20.6264 24.7628 20.6516L26.3403 20.4822C27.2772 20.2994 28.0299 20.3119 28.5981 20.5199C29.1664 20.7281 29.6194 21.143 29.957 21.7648C30.3037 22.3845 30.4058 23.0367 30.2634 23.7214C30.1209 24.4063 29.6956 25.052 28.9877 25.6588L29.7597 27.038Z" fill="black"/>
</svg>
