<svg width="42" height="50" viewBox="0 0 42 50" fill="none" xmlns="http://www.w3.org/2000/svg">
<path d="M41.523 41.0302V41.0194C41.523 41.0194 33.5653 31.589 33.5604 31.5844C32.9295 30.8355 31.9205 30.8517 31.2998 31.5894L27.6369 35.9531C26.2129 37.643 24.3767 36.1434 20.8522 32.7337C18.5203 30.4777 15.8373 27.4441 13.511 24.0239C11.8785 21.6242 10.4348 19.1042 11.9262 17.3351C11.9301 17.3306 15.6042 12.9827 15.6035 12.9782L15.6063 12.969C16.2656 12.1867 16.2017 10.9884 15.5996 10.2732V10.2623C15.5996 10.2623 7.41197 0.560375 7.4074 0.554544C6.7765 -0.193972 5.76784 -0.177311 5.14677 0.559542L1.45687 4.93734C-0.06333 7.19455 -3.44182 17.9524 11.0422 35.5669C26.3003 54.1241 36.1462 50.1545 37.8412 48.0605C37.8412 48.0605 41.5272 43.739 41.5272 43.7348L41.5304 43.7261C42.1897 42.9434 42.1248 41.7458 41.523 41.0302Z" fill="#D9D9D9"/>
</svg>
