<svg width="56" height="48" viewBox="0 0 56 48" fill="none" xmlns="http://www.w3.org/2000/svg">
<g opacity="0.2">
<path d="M52 1.97656H36C33.8783 1.97657 31.8435 2.8099 30.3432 4.29322C28.8429 5.77654 28 7.78835 28 9.88608C28 8.84739 27.7931 7.81886 27.3911 6.85923C26.989 5.8996 26.3997 5.02766 25.6569 4.2932C24.914 3.55873 24.0321 2.97612 23.0615 2.57863C22.0909 2.18114 21.0506 1.97656 20 1.97656H4C3.73736 1.97656 3.47728 2.0277 3.23463 2.12708C2.99198 2.22645 2.7715 2.3721 2.58578 2.55572C2.40006 2.73934 2.25275 2.95732 2.15224 3.19723C2.05173 3.43714 2 3.69427 2 3.95394V35.592C2 35.8517 2.05173 36.1088 2.15224 36.3487C2.25275 36.5886 2.40006 36.8066 2.58578 36.9902C2.7715 37.1739 2.99198 37.3195 3.23463 37.4189C3.47728 37.5182 3.73736 37.5694 4 37.5694H20C21.0506 37.5694 22.0909 37.774 23.0615 38.1715C24.0321 38.5689 24.914 39.1516 25.6569 39.886C26.3997 40.6205 26.989 41.4924 27.3911 42.4521C27.7931 43.4117 28 44.4402 28 45.4789C28 43.3812 28.8429 41.3694 30.3432 39.886C31.8435 38.4027 33.8783 37.5694 36 37.5694H52C52.2626 37.5694 52.5227 37.5182 52.7654 37.4189C53.008 37.3195 53.2285 37.1739 53.4142 36.9902C53.5999 36.8066 53.7473 36.5886 53.8478 36.3487C53.9483 36.1088 54 35.8517 54 35.592V3.95394C54 3.69427 53.9483 3.43714 53.8478 3.19723C53.7473 2.95732 53.5999 2.73934 53.4142 2.55572C53.2285 2.3721 53.008 2.22645 52.7654 2.12708C52.5227 2.0277 52.2626 1.97656 52 1.97656Z" fill="black"/>
</g>
<path d="M52 0H36C34.4468 0.000102162 32.9151 0.358219 31.5264 1.04591C30.1377 1.73361 28.9303 2.73194 28 3.96164C27.0697 2.73194 25.8623 1.73361 24.4736 1.04591C23.0849 0.358219 21.5532 0.000102162 20 0H4C2.93951 0.00119913 1.9228 0.418245 1.17291 1.15965C0.42303 1.90105 0.00121285 2.90626 0 3.95476V35.5928C0.00121285 36.6413 0.42303 37.6465 1.17291 38.3879C1.9228 39.1293 2.93951 39.5464 4 39.5476H20C21.5907 39.5494 23.1158 40.1749 24.2406 41.287C25.3655 42.3991 25.9982 43.907 26 45.4797C26 46.0041 26.2107 46.5071 26.5858 46.8779C26.9609 47.2488 27.4696 47.4571 28 47.4571C28.5304 47.4571 29.0391 47.2488 29.4142 46.8779C29.7893 46.5071 30 46.0041 30 45.4797C30.0018 43.907 30.6345 42.3991 31.7594 41.287C32.8842 40.1749 34.4093 39.5494 36 39.5476H52C53.0605 39.5464 54.0772 39.1293 54.8271 38.3879C55.577 37.6465 55.9988 36.6413 56 35.5928V3.95476C55.9988 2.90626 55.577 1.90105 54.8271 1.15965C54.0772 0.418245 53.0605 0.00119913 52 0ZM20 35.5928L4.00012 35.5952L4 35.5928V3.95476H20C21.5907 3.95656 23.1158 4.58213 24.2406 5.69423C25.3655 6.80633 25.9982 8.31415 26 9.88689V37.5748C24.2713 36.2864 22.1648 35.5905 20 35.5928ZM52 35.5928H36C33.835 35.5906 31.7285 36.2868 30 37.5756V9.88689C30.0018 8.31415 30.6345 6.80633 31.7594 5.69423C32.8842 4.58213 34.4093 3.95656 36 3.95476H52V35.5928Z" fill="black"/>
</svg>
