<svg width="173" height="48" viewBox="0 0 173 48" fill="none" xmlns="http://www.w3.org/2000/svg">
<path d="M30.4741 21C34.1688 21 35 22.3285 35 23.9854C35 25.7417 33.9945 27 30.4894 27C27.0067 27 26 25.8148 26 23.9854C26 22.1852 27.0973 21 30.4741 21Z" fill="white"/>
<path d="M65.977 21C69.2611 21 70 22.3285 70 23.9854C70 25.7417 69.1052 27 65.9906 27C62.8959 27 62 25.8148 62 23.9854C62 22.1852 62.9754 21 65.977 21Z" fill="white"/>
<path fill-rule="evenodd" clip-rule="evenodd" d="M0 48V0H173V48H0ZM82.4514 45.2922H170.818V2.70781H82.4514V45.2922ZM30.3263 32.2852C36.404 32.2852 38.959 29.0318 38.959 23.9506C38.959 18.7868 36.0811 15.7175 30.3263 15.7175C24.66 15.7175 21.6773 19.0508 21.6773 23.9506C21.6773 29.4799 24.8061 32.2852 30.3263 32.2852ZM9.19583 16.083V32.0415H21.4624V27.7916H13.6338V16.083H9.19583ZM52.6874 32.0415L52.5729 30.4954C51.0882 31.8103 49.2812 32.4431 47.4618 32.2852C44.7268 32.2852 42.4489 31.2684 41.1714 29.2159C40.3288 27.7174 39.9033 25.9186 39.9594 24.0927C39.9115 22.3052 40.3517 20.55 41.2085 19.1117C42.5013 17.1201 44.8446 15.7987 48.3334 15.7987C52.347 15.7987 54.7056 17.3232 55.7202 19.8848C55.938 20.4881 56.0659 21.1353 56.0977 21.7952H51.8517C51.7447 21.3941 51.5456 21.0408 51.279 20.7784C50.4332 20.0825 49.4232 19.7607 48.412 19.8645C47.8188 19.7753 47.2171 19.8432 46.6467 20.0641C46.0764 20.2849 45.5502 20.6534 45.1032 21.1453C44.5954 22.0077 44.3571 23.0695 44.4322 24.1334C44.3733 25.1484 44.5925 26.1584 45.0541 26.9996C45.5052 27.5212 46.0415 27.9163 46.6264 28.1584C47.2115 28.4003 47.8315 28.4836 48.4447 28.4022C49.6625 28.5252 50.8716 28.059 51.819 27.1011C52.0225 26.7854 52.1628 26.4141 52.2281 26.018H47.6592V22.5886H56.209V32.0415H52.6874ZM66.1027 32.2852C72.1793 32.2852 74.7354 29.0318 74.7354 23.9506C74.7354 18.7868 71.853 15.7175 66.1027 15.7175C60.4364 15.7175 57.4537 19.0508 57.4537 23.9506C57.4537 29.4799 60.5826 32.2852 66.1027 32.2852Z" fill="white"/>
<path d="M90 32V16H93V32H90Z" fill="white"/>
<path d="M109.161 25.3294C108.354 26.631 106.965 27.2256 105.006 27.2405C104.593 27.2405 99.1174 27.2202 99.1174 27.2202V32H96V16.0353H105.007C105.729 15.9412 106.459 16.0356 107.149 16.3123C107.84 16.5892 108.475 17.0421 109.014 17.6417C109.726 18.7851 110.072 20.2108 109.987 21.6481C110.06 22.9554 109.769 24.2542 109.161 25.3294ZM106.605 20.1244C106.276 19.5149 105.565 19.1763 104.362 19.1763H99.1009V24.036H104.328C105.615 24.036 106.292 23.7109 106.605 23.0797C106.791 22.6351 106.871 22.1343 106.836 21.6359C106.864 21.1161 106.784 20.5961 106.605 20.1244Z" fill="white"/>
<path d="M118.73 32C112.811 32 111 29.3656 111 26.7589H114.358C114.358 28.0445 115.837 29.0139 118.88 29.0139C121.905 29.0139 122.703 28.3803 122.703 27.3516C122.703 26.2043 122.105 25.8487 119.295 25.4733C118.741 25.414 117.235 25.1967 116.669 25.0979C112.683 24.5631 111.148 23.159 111.148 20.6471C111.148 17.9969 113.394 16 118.264 16C123.551 16 125.579 18.4724 125.579 21.0436H122.258C122.258 19.7382 121.011 18.9861 118.068 18.9861C115.042 18.9861 114.395 19.48 114.395 20.4495C114.395 21.4585 115.059 21.7746 118.27 22.229C119.002 22.3489 120.63 22.5662 121.079 22.6242C124.471 23.0391 126 24.5025 126 27.0934C125.994 30.1796 123.667 32 118.73 32Z" fill="white"/>
<path d="M135.943 32C131.739 32 129 29.9291 129 25.5743V16H132.076V25.6278C132.076 27.6185 133.382 28.9438 136.072 28.9438C138.504 28.9438 139.955 27.6988 139.955 25.6278V16H143V25.9317C143 29.8902 140.454 32 135.943 32Z" fill="white"/>
<path d="M160.018 32V21.3198L155.972 32H152.901L148.97 21.3198V32H146V16H150.023L154.482 28.1883L159.04 16H163V32H160.018Z" fill="white"/>
</svg>
