<svg width="27" height="31" viewBox="0 0 27 31" fill="none" xmlns="http://www.w3.org/2000/svg">
<path d="M13.0246 0.749023C5.84474 0.749023 0 6.0136 0 12.4808C0 13.2171 0.0749324 13.9596 0.231609 14.6836C0.238421 14.7265 0.26567 14.8554 0.320166 15.0763C0.517716 15.8678 0.810633 16.6471 1.19211 17.3895C2.59539 20.3654 5.68125 24.9366 12.4524 29.8331C12.6227 29.9558 12.8271 30.0171 13.0314 30.0171C13.2358 30.0171 13.4402 29.9558 13.6105 29.8331C20.3748 24.9366 23.4675 20.3654 24.8708 17.3895C25.2523 16.6471 25.5452 15.874 25.7427 15.0763C25.7972 14.8554 25.8245 14.7265 25.8313 14.6836C25.9811 13.9596 26.0629 13.2171 26.0629 12.4808C26.0493 6.0136 20.2045 0.749023 13.0246 0.749023ZM24.0057 14.3952C24.0057 14.4075 23.9988 14.4197 23.9988 14.432C23.992 14.4627 23.9716 14.5547 23.9375 14.6959C23.9375 14.702 23.9375 14.702 23.9375 14.7081C23.7672 15.3954 23.5152 16.0642 23.1814 16.7084C23.1746 16.7146 23.1746 16.7268 23.1678 16.733C21.8939 19.4512 19.101 23.599 13.0246 28.1212C6.94829 23.599 4.15535 19.4512 2.8815 16.733C2.87468 16.7268 2.87468 16.7146 2.86787 16.7084C2.54089 16.0703 2.28885 15.3954 2.11173 14.7081C2.11173 14.702 2.11173 14.702 2.11173 14.6959C2.07086 14.5547 2.05724 14.4627 2.05043 14.432C2.05043 14.4197 2.04361 14.4075 2.04361 14.3891C1.90737 13.7571 1.83925 13.1189 1.83925 12.4747C1.83925 6.92171 6.85973 2.39957 13.0246 2.39957C19.1895 2.39957 24.21 6.92171 24.21 12.4747C24.21 13.1251 24.1419 13.7693 24.0057 14.3952Z" fill="white"/>
<path d="M13.0247 5.16113C8.46745 5.16113 4.75488 8.50518 4.75488 12.6101C4.75488 16.715 8.46745 20.059 13.0247 20.059C17.582 20.059 21.2945 16.715 21.2945 12.6101C21.2945 8.50518 17.582 5.16113 13.0247 5.16113ZM13.0247 18.4024C9.47563 18.4024 6.59413 15.8007 6.59413 12.6101C6.59413 9.41943 9.48244 6.81782 13.0247 6.81782C16.567 6.81782 19.4553 9.41943 19.4553 12.6101C19.4553 15.8007 16.5738 18.4024 13.0247 18.4024Z" fill="white"/>
</svg>
