<svg width="175" height="49" viewBox="0 0 175 49" fill="none" xmlns="http://www.w3.org/2000/svg">
<rect width="171.778" height="49" fill="black"/>
<rect x="8.08398" y="7" width="69.7216" height="35" fill="white"/>
<path d="M99.8996 20.6392C99.7339 20.1023 99.5052 19.6217 99.2135 19.1974C98.9285 18.7666 98.5838 18.3987 98.1794 18.0938C97.7817 17.7888 97.3243 17.5601 96.8073 17.4077C96.2902 17.2486 95.7268 17.169 95.1169 17.169C94.0232 17.169 93.0487 17.4441 92.1936 17.9943C91.3385 18.5445 90.6657 19.3532 90.1752 20.4205C89.6913 21.4811 89.4493 22.7737 89.4493 24.2983C89.4493 25.8362 89.6913 27.1387 90.1752 28.206C90.6591 29.2732 91.3319 30.0852 92.1936 30.642C93.0554 31.1922 94.0563 31.4673 95.1965 31.4673C96.2306 31.4673 97.1254 31.2685 97.8811 30.8707C98.6434 30.473 99.2301 29.9096 99.6411 29.1804C100.052 28.4446 100.258 27.5829 100.258 26.5952L101.093 26.7244H95.5644V23.8409H103.827V26.2869C103.827 28.0303 103.456 29.5384 102.714 30.8111C101.971 32.0838 100.95 33.0649 99.651 33.7543C98.3518 34.437 96.8603 34.7784 95.1766 34.7784C93.3006 34.7784 91.6534 34.3575 90.2348 33.5156C88.8229 32.6671 87.7192 31.464 86.9237 29.9062C86.1349 28.3419 85.7405 26.4858 85.7405 24.3381C85.7405 22.6941 85.9725 21.2259 86.4365 19.9332C86.9072 18.6406 87.5634 17.5436 88.4053 16.642C89.2471 15.7339 90.2348 15.0445 91.3683 14.5739C92.5019 14.0966 93.7348 13.858 95.0672 13.858C96.1941 13.858 97.2448 14.0237 98.2192 14.3551C99.1936 14.6799 100.059 15.1439 100.814 15.7472C101.577 16.3504 102.203 17.0663 102.694 17.8949C103.184 18.7235 103.506 19.6383 103.658 20.6392H99.8996ZM115.57 28.0767V19.2273H119.169V34.5H115.679V31.7855H115.52C115.175 32.6406 114.608 33.34 113.82 33.8835C113.037 34.4271 112.073 34.6989 110.926 34.6989C109.925 34.6989 109.04 34.4768 108.271 34.0327C107.509 33.5819 106.912 32.929 106.481 32.0739C106.051 31.2121 105.835 30.1714 105.835 28.9517V19.2273H109.435V28.3949C109.435 29.3627 109.7 30.1316 110.23 30.7017C110.76 31.2718 111.456 31.5568 112.318 31.5568C112.848 31.5568 113.362 31.4276 113.859 31.169C114.356 30.9105 114.764 30.526 115.082 30.0156C115.407 29.4986 115.57 28.8523 115.57 28.0767ZM121.47 34.5V19.2273H125.07V34.5H121.47ZM123.28 17.0597C122.71 17.0597 122.219 16.8707 121.808 16.4929C121.397 16.1084 121.192 15.6477 121.192 15.1108C121.192 14.5672 121.397 14.1065 121.808 13.7287C122.219 13.3442 122.71 13.152 123.28 13.152C123.857 13.152 124.347 13.3442 124.752 13.7287C125.163 14.1065 125.368 14.5672 125.368 15.1108C125.368 15.6477 125.163 16.1084 124.752 16.4929C124.347 16.8707 123.857 17.0597 123.28 17.0597ZM134.998 19.2273V22.0114H126.218V19.2273H134.998ZM128.385 15.5682H131.985V29.9062C131.985 30.3902 132.058 30.7614 132.203 31.0199C132.356 31.2718 132.555 31.4441 132.8 31.5369C133.045 31.6297 133.317 31.6761 133.615 31.6761C133.841 31.6761 134.046 31.6596 134.232 31.6264C134.424 31.5933 134.57 31.5634 134.669 31.5369L135.276 34.3509C135.084 34.4171 134.809 34.4901 134.451 34.5696C134.099 34.6491 133.668 34.6955 133.158 34.7088C132.257 34.7353 131.445 34.5994 130.722 34.3011C129.999 33.9962 129.426 33.5256 129.002 32.8892C128.584 32.2528 128.379 31.4574 128.385 30.5028V15.5682ZM141.003 34.8082C140.035 34.8082 139.163 34.6359 138.388 34.2912C137.619 33.9399 137.009 33.4228 136.558 32.7401C136.114 32.0573 135.892 31.2154 135.892 30.2145C135.892 29.3527 136.051 28.6402 136.369 28.0767C136.687 27.5133 137.122 27.0625 137.672 26.7244C138.222 26.3864 138.842 26.1312 139.531 25.9588C140.227 25.7798 140.946 25.6506 141.689 25.571C142.584 25.4782 143.31 25.3954 143.866 25.3224C144.423 25.2429 144.828 25.1236 145.079 24.9645C145.338 24.7988 145.467 24.5436 145.467 24.1989V24.1392C145.467 23.3902 145.245 22.8101 144.801 22.3991C144.357 21.9882 143.717 21.7827 142.882 21.7827C142 21.7827 141.301 21.9749 140.784 22.3594C140.274 22.7438 139.929 23.1979 139.75 23.7216L136.389 23.2443C136.654 22.3163 137.092 21.5407 137.702 20.9176C138.311 20.2879 139.057 19.8172 139.939 19.5057C140.82 19.1875 141.795 19.0284 142.862 19.0284C143.598 19.0284 144.33 19.1146 145.06 19.2869C145.789 19.4593 146.455 19.7443 147.058 20.142C147.661 20.5331 148.145 21.0668 148.51 21.7429C148.881 22.419 149.067 23.2642 149.067 24.2784V34.5H145.606V32.402H145.487C145.268 32.8262 144.96 33.224 144.562 33.5952C144.171 33.9598 143.677 34.2547 143.081 34.4801C142.491 34.6989 141.798 34.8082 141.003 34.8082ZM141.937 32.1634C142.66 32.1634 143.286 32.0208 143.817 31.7358C144.347 31.4441 144.755 31.0597 145.04 30.5824C145.331 30.1051 145.477 29.5848 145.477 29.0213V27.2216C145.364 27.3144 145.172 27.4006 144.9 27.4801C144.635 27.5597 144.337 27.6293 144.006 27.6889C143.674 27.7486 143.346 27.8016 143.021 27.848C142.696 27.8944 142.415 27.9342 142.176 27.9673C141.639 28.0402 141.158 28.1596 140.734 28.3253C140.31 28.491 139.975 28.723 139.73 29.0213C139.485 29.313 139.362 29.6908 139.362 30.1548C139.362 30.8177 139.604 31.3182 140.088 31.6562C140.572 31.9943 141.188 32.1634 141.937 32.1634ZM151.286 34.5V19.2273H154.776V21.7727H154.935C155.214 20.8911 155.691 20.2116 156.367 19.7344C157.05 19.2505 157.829 19.0085 158.704 19.0085C158.902 19.0085 159.124 19.0185 159.37 19.0384C159.622 19.0516 159.83 19.0748 159.996 19.108V22.419C159.844 22.366 159.602 22.3196 159.27 22.2798C158.946 22.2334 158.631 22.2102 158.326 22.2102C157.669 22.2102 157.08 22.3527 156.556 22.6378C156.039 22.9162 155.631 23.304 155.333 23.8011C155.035 24.2983 154.885 24.8717 154.885 25.5213V34.5H151.286Z" fill="white"/>
<path d="M16.5606 32V17.4545H22.0152C23.1326 17.4545 24.0701 17.6629 24.8277 18.0795C25.59 18.4962 26.1653 19.0691 26.5535 19.7983C26.9465 20.5227 27.143 21.3466 27.143 22.2699C27.143 23.2027 26.9465 24.0312 26.5535 24.7557C26.1605 25.4801 25.5805 26.0507 24.8135 26.4673C24.0464 26.8793 23.1018 27.0852 21.9797 27.0852H18.3646V24.919H21.6246C22.278 24.919 22.813 24.8054 23.2297 24.5781C23.6463 24.3509 23.9541 24.0384 24.153 23.6406C24.3566 23.2429 24.4584 22.786 24.4584 22.2699C24.4584 21.7538 24.3566 21.2992 24.153 20.9062C23.9541 20.5133 23.644 20.2079 23.2226 19.9901C22.8059 19.7675 22.2685 19.6562 21.6104 19.6562H19.1956V32H16.5606ZM50.7792 32.2202C50.0879 32.2202 49.4653 32.0971 48.9113 31.8509C48.362 31.5999 47.9264 31.2306 47.6045 30.7429C47.2872 30.2552 47.1286 29.6539 47.1286 28.9389C47.1286 28.3234 47.2422 27.8144 47.4695 27.4119C47.6968 27.0095 48.0069 26.6875 48.3999 26.446C48.7929 26.2045 49.2356 26.0223 49.728 25.8991C50.2252 25.7713 50.7389 25.679 51.2692 25.6222C51.9084 25.5559 52.4269 25.4967 52.8246 25.4446C53.2224 25.3878 53.5112 25.3026 53.6911 25.1889C53.8758 25.0705 53.9681 24.8883 53.9681 24.642V24.5994C53.9681 24.0644 53.8095 23.6501 53.4922 23.3565C53.175 23.063 52.7181 22.9162 52.1215 22.9162C51.4918 22.9162 50.9922 23.0535 50.6229 23.3281C50.2583 23.6027 50.0121 23.9271 49.8843 24.3011L47.4837 23.9602C47.6731 23.2973 47.9856 22.7434 48.4212 22.2983C48.8568 21.8485 49.3895 21.5123 50.0192 21.2898C50.649 21.0625 51.345 20.9489 52.1073 20.9489C52.6329 20.9489 53.1561 21.0104 53.6769 21.1335C54.1977 21.2566 54.6736 21.4602 55.1045 21.7443C55.5353 22.0237 55.881 22.4048 56.1414 22.8878C56.4065 23.3707 56.5391 23.9744 56.5391 24.6989V32H54.0675V30.5014H53.9823C53.826 30.8045 53.6059 31.0885 53.3218 31.3537C53.0424 31.6141 52.6897 31.8248 52.2635 31.9858C51.8421 32.142 51.3474 32.2202 50.7792 32.2202ZM51.4468 30.331C51.9629 30.331 52.4103 30.2292 52.7891 30.0256C53.1679 29.8172 53.4591 29.5426 53.6627 29.2017C53.871 28.8608 53.9752 28.4891 53.9752 28.0866V26.8011C53.8947 26.8674 53.7574 26.929 53.5633 26.9858C53.3739 27.0426 53.1608 27.0923 52.9241 27.1349C52.6873 27.1776 52.4529 27.2154 52.2209 27.2486C51.9889 27.2817 51.7877 27.3101 51.6172 27.3338C51.2337 27.3859 50.8904 27.4711 50.5874 27.5895C50.2844 27.7079 50.0453 27.8736 49.8701 28.0866C49.6949 28.295 49.6073 28.5649 49.6073 28.8963C49.6073 29.3698 49.7801 29.7273 50.1258 29.9688C50.4714 30.2102 50.9117 30.331 51.4468 30.331ZM63.1317 36.0909C62.7814 36.0909 62.457 36.0625 62.1587 36.0057C61.8652 35.9536 61.6308 35.892 61.4556 35.821L62.0522 33.8182C62.4262 33.9271 62.76 33.9792 63.0536 33.9744C63.3472 33.9697 63.6052 33.8774 63.8278 33.6974C64.055 33.5223 64.2468 33.2287 64.403 32.8168L64.6232 32.2273L60.6672 21.0909H63.3945L65.9087 29.3295H66.0224L68.5437 21.0909H71.278L66.9101 33.321C66.7065 33.8987 66.4367 34.3935 66.1005 34.8054C65.7643 35.2221 65.3524 35.5393 64.8647 35.7571C64.3817 35.9796 63.8041 36.0909 63.1317 36.0909Z" fill="black"/>
<path d="M31 18.1424L43.1408 25.9665L31.002 33.7935L31 18.1424Z" fill="white" stroke="black"/>
</svg>
